<svg fill="none" height="33" viewBox="0 0 94 33" width="94" xmlns="http://www.w3.org/2000/svg"><g fill="#999"><g clip-rule="evenodd" fill-rule="evenodd"><path d="m7.13375 28.523c-1.79129 0-3.24321-1.4519-3.24321-3.2432s1.45192-3.2432 3.24321-3.2432c1.79128 0 3.24325 1.4519 3.24325 3.2432s-1.45197 3.2432-3.24325 3.2432zm0-1.9459c-.71652 0-1.29729-.5808-1.29729-1.2973s.58077-1.2973 1.29729-1.2973c.71651 0 1.29728.5808 1.29728 1.2973s-.58077 1.2973-1.29728 1.2973z"/><path d="m4.58655 9.47955-4.308257 6.46495c-.153854.2301-.2789291.6417-.2789291.917v7.0053c0 .6906.5592951 1.251 1.2509461 1.251h1.25095.09558c.08552-2.4326 2.08421-4.3781 4.53763-4.3781s4.45213 1.9455 4.53763 4.3781h2.0877v-16.26233h-8.00609c-.41267 0-.93568.28035-1.16716.62408zm6.67135 6.88155h-7.5057v-1.2509l2.50189-3.7529h5.00381z"/><path d="m33.7869 4.52344h-17.3212c-.684 0-1.2372.56482-1.2372 1.2608v19.49576h6.8217c0-2.5078 2.0327-4.5405 4.5405-4.5405s4.5405 2.0327 4.5405 4.5405h2.6557c.684 0 1.2372-.5649 1.2372-1.2608v-18.23496c0-.69598-.5532-1.2608-1.2372-1.2608z"/><path d="m26.5908 28.5235c-1.7913 0-3.2432-1.4519-3.2432-3.2432s1.4519-3.2432 3.2432-3.2432 3.2432 1.4519 3.2432 3.2432-1.4519 3.2432-3.2432 3.2432zm0-1.9459c-.7165 0-1.2973-.5808-1.2973-1.2973s.5808-1.2973 1.2973-1.2973 1.2973.5808 1.2973 1.2973-.5808 1.2973-1.2973 1.2973z"/></g><path d="m43.0918 13.5235h.936v-3.74396h4.152v-.78h-4.152v-3.096h4.5v-.78h-5.436z"/><path d="m49.9445 13.5235h.912v-3.012c0-1.54796.744-2.31596 1.908-2.31596h.18v-.852h-.144c-1.116 0-1.776.504-2.004 1.452v-1.416h-.852z"/><path d="m56.4932 13.6675c1.284 0 2.304-.78 2.508-1.884h-.816c-.204.696-.768 1.188-1.692 1.188-1.284 0-1.836-.864-1.836-1.932v-.216h4.404v-.91196c0-1.512-.852-2.676-2.604-2.676-1.728 0-2.676 1.104-2.676 2.77196v.984c0 1.656 1.116 2.676 2.712 2.676zm-1.836-3.73196c0-1.128.48-2.004 1.8-2.004 1.2 0 1.752.816 1.752 1.908v.28796h-3.552z"/><path d="m63.1377 13.6675c1.284 0 2.304-.78 2.508-1.884h-.816c-.204.696-.768 1.188-1.692 1.188-1.284 0-1.836-.864-1.836-1.932v-.216h4.404v-.91196c0-1.512-.852-2.676-2.604-2.676-1.728 0-2.676 1.104-2.676 2.77196v.984c0 1.656 1.116 2.676 2.712 2.676zm-1.836-3.73196c0-1.128.48-2.004 1.8-2.004 1.2 0 1.752.816 1.752 1.908v.28796h-3.552z"/><path d="m45.9482 25.6916c1.896 0 3.324-1.056 3.324-2.652 0-1.14-.6-1.872-1.836-2.196l-2.304-.612c-.468-.12-.72-.396-.72-.888 0-.732.576-1.092 1.464-1.092 1.032 0 1.488.54 1.488 1.248v.168h1.548v-.204c0-1.476-1.176-2.508-3.036-2.508-1.884 0-3.084.948-3.084 2.532 0 1.26.6 1.848 1.872 2.172l2.196.564c.564.144.792.48.792.948 0 .78-.648 1.224-1.644 1.224-1.128 0-1.74-.564-1.74-1.344v-.18h-1.608v.216c0 1.644 1.308 2.604 3.288 2.604z"/><path d="m50.6557 25.5236h1.632v-3.696c0-.84.468-1.272 1.2-1.272.792 0 1.14.516 1.14 1.236v3.732h1.632v-3.996c0-1.476-.852-2.388-2.208-2.388-.804 0-1.44.348-1.764.888v-3.264h-1.632z"/><path d="m57.8402 25.5236h1.632v-6.24h-1.632zm-.132-7.872c0 .54.396.948.948.948s.948-.408.948-.948-.396-.948-.948-.948-.948.408-.948.948z"/><path d="m64.5286 19.1396c-.9 0-1.536.408-1.848.888v-.744h-1.56v8.328h1.632v-2.76c.324.48.96.816 1.788.816 1.68 0 2.616-1.248 2.616-2.748v-1.032c0-1.476-.912-2.748-2.628-2.748zm-.396 1.32c.948 0 1.392.672 1.392 1.5v.888c0 .876-.48 1.5-1.404 1.5-.744 0-1.368-.528-1.368-1.476v-.912c0-.876.552-1.5 1.38-1.5z"/><path d="m71.8997 19.1396c-.9 0-1.536.408-1.848.888v-.744h-1.56v8.328h1.632v-2.76c.324.48.96.816 1.788.816 1.68 0 2.616-1.248 2.616-2.748v-1.032c0-1.476-.912-2.748-2.628-2.748zm-.396 1.32c.948 0 1.392.672 1.392 1.5v.888c0 .876-.48 1.5-1.404 1.5-.744 0-1.368-.528-1.368-1.476v-.912c0-.876.552-1.5 1.38-1.5z"/><path d="m75.8988 25.5236h1.632v-6.24h-1.632zm-.132-7.872c0 .54.396.948.9479.948.552 0 .9481-.408.9481-.948s-.3961-.948-.9481-.948c-.5519 0-.9479.408-.9479.948z"/><path d="m79.1792 25.5236h1.632v-3.696c0-.84.468-1.272 1.2-1.272.792 0 1.14.516 1.14 1.236v3.732h1.632v-3.996c0-1.5-.852-2.388-2.208-2.388-.888 0-1.524.312-1.836.888v-.744h-1.56z"/><path d="m89.0516 27.7556c1.74 0 2.988-1.032 2.988-2.364v-6.108h-1.56v.756c-.216-.42-.888-.9-1.848-.9-1.704 0-2.58 1.2-2.58 2.592v.912c0 1.368.888 2.592 2.568 2.592.804 0 1.524-.42 1.788-.852v.984c0 .696-.528 1.152-1.356 1.152-.636 0-1.128-.192-1.344-.624h-1.584c.252 1.176 1.464 1.86 2.928 1.86zm-.048-3.828c-.888 0-1.332-.576-1.332-1.368v-.72c0-.852.468-1.392 1.38-1.392.78 0 1.356.552 1.356 1.392v.72c0 .876-.636 1.368-1.404 1.368z"/></g></svg>